<svg version="1" xmlns="http://www.w3.org/2000/svg" width="346.667" height="346.667" viewBox="0 0 260.000000 260.000000"><path d="M119 8.6c-15.5 3.2-30.2 11-41.5 22-10.3 10.2-16.7 20.3-20.9 33-1.6 5-2.1 6.9-3.3 12.9-1.2 5.7-.6 24 1 31.1 1.6 7.6 7.4 22.4 8.7 22.4.4 0 2.3-2.4 4.2-5.3 15.4-23 44.9-37.3 73-35.3 4.8.3 9.3.8 10 1.1.7.2 2.4.6 3.8.9 7.2 1.2 20.6 7.2 28.5 12.6 7.8 5.4 23.5 22.2 23.5 25.2 0 2.7 2.5-.5 5.1-6.6 5.1-12 6.3-17.9 6.3-32.6 0-11-.4-15-2.3-21.5-4.2-15.2-13.3-30.1-24.2-39.9-9.2-8.3-25.6-17.2-35.1-19-1.3-.2-4.2-.9-6.6-1.4-6.1-1.4-22.6-1.2-30.2.4zM60.7 135.6c-2.8 5.5-6.5 16.9-7.4 22.9-1.2 7.1-.5 24.8 1.1 31.8 8.7 37 40.6 63.1 78.3 64.1 39.5 1.1 72.6-24 82.9-62.9 1.3-5.1 1.8-10.5 1.8-20 0-14.3-1.9-23.2-7.3-34.7l-2.8-6.1-4 5.9c-8.4 12.3-22.4 23.7-36.5 29.6-12.9 5.5-30.1 7.5-44.8 5.3-7.5-1.1-21.1-6.1-29-10.6-8.5-4.9-22.1-17.8-26.8-25.3l-3-4.9-2.5 4.9z"/></svg>